<?xml version="1.0" encoding="utf-8"?>
<!-- Generator: Adobe Illustrator 17.0.0, SVG Export Plug-In . SVG Version: 6.00 Build 0)  -->
<!DOCTYPE svg PUBLIC "-//W3C//DTD SVG 1.1//EN" "http://www.w3.org/Graphics/SVG/1.1/DTD/svg11.dtd">
<svg version="1.1" id="Layer_1" xmlns="http://www.w3.org/2000/svg" xmlns:xlink="http://www.w3.org/1999/xlink" x="0px" y="0px"
	 width="185px" height="188px" viewBox="0 0 185 188" enable-background="new 0 0 185 188" xml:space="preserve">
<path fill="#959699" d="M5.927,64.111c2.575-0.857,5.23-0.307,7.846-0.452c0.21,0.103,0.462,0.07,0.663,0.202
	c1.391,2.094,2.572,4.315,3.893,6.452c5.882,9.513,11.57,19.143,17.325,28.732c0.513,0.854,1.013,1.714,1.595,2.525
	c0.053,0.295-0.051,0.555-0.196,0.798c-1.496,2.507-3,5.009-4.511,7.507c-0.165,0.272-0.345,0.543-0.66,0.674
	c-0.587-0.019-0.778-0.462-0.738-0.9c0.142-1.562-0.721-2.741-1.424-3.983c-0.452-0.799-0.94-1.578-1.413-2.365
	c-0.758-1.26-0.852-1.265-1.593-0.032c-2.487,4.142-4.974,8.283-7.454,12.43c-1.393,2.33-2.783,4.663-4.196,6.981
	c-0.243,0.399-0.409,0.889-0.967,0.985c-1.66,0.532-3.365,0.127-5.046,0.234c-0.472,0.03-0.949-0.023-1.424-0.038
	c-0.492,0.141-0.937,0.128-1.227-0.381c-0.073-0.099-0.147-0.197-0.22-0.296c-0.261-0.4-0.071-0.847-0.129-1.267
	c0.039-0.66,0.332-1.218,0.666-1.774c4.607-7.693,9.149-15.424,13.826-23.074c1.395-2.282,1.367-4.334-0.018-6.609
	c-4.538-7.453-8.992-14.957-13.53-22.41c-0.437-0.717-0.83-1.448-1.067-2.256C5.927,65.232,5.927,64.671,5.927,64.111z"/>
<path fill="#5580C1" d="M21.84,31.587c0.195-1.75-0.441-3.242-1.332-4.706c-4.697-7.723-9.359-15.468-14.04-23.201
	C6.332,3.456,6.247,3.157,5.926,3.09c0-0.801-0.313-1.914,0.088-2.314s1.514-0.088,2.314-0.088c1.922,0,3.844,0,5.766,0
	c0.948,0.847,1.42,2.019,2.055,3.071c6.722,11.153,13.38,22.344,20.211,33.431c0.266,0.432,0.625,0.846,0.568,1.416
	c-1.626,3.085-3.251,6.171-5.459,8.899c-0.444-0.239-0.391-0.682-0.371-1.058c0.06-1.096-0.356-2.017-0.903-2.925
	c-0.968-1.608-1.825-3.285-3.02-4.748c-1.654-2.914-3.375-5.789-4.996-8.477c-0.139-0.348-0.306-0.142-0.172-0.23
	c0.042-0.028,0.077-0.006,0.099,0.068C22.269,30.664,22.625,31.231,21.84,31.587z"/>
<path fill="#5580C1" d="M22.08,157.235c0.103-1.286-0.382-2.367-1.014-3.469c-4.764-8.301-9.9-16.378-14.734-24.636
	c-0.092-0.157-0.269-0.264-0.406-0.394c0-0.32,0-0.641,0-0.961c0.847-1.323,1.962-1.633,3.603-1.001
	c1.591,0.04,3.182,0.08,4.773,0.121c0.381,0.194,0.546,0.566,0.753,0.907c5.183,8.54,10.301,17.12,15.463,25.672
	c2.065,3.421,4.168,6.819,6.225,10.244c0.205,0.341,0.454,0.661,0.529,1.068c-0.159,1.201-1.02,2.048-1.554,3.06
	c-0.968,1.835-2.095,3.577-3.199,5.33c-0.269,0.427-0.419,1.098-1.181,0.959c0.341-3.761-2.159-6.309-3.919-9.173
	c-1.541-2.455-2.911-5.012-4.418-7.49C22.701,156.975,22.464,157.02,22.08,157.235z"/>
<path fill="#D44234" d="M36.929,38.605c-3.253-5.305-6.532-10.593-9.752-15.918c-4.293-7.101-8.541-14.229-12.803-21.348
	c-0.12-0.201-0.187-0.434-0.279-0.652c2.723,0,5.446,0,8.168,0c2.18,0.482,3.271,2.236,4.275,3.925
	c4.271,7.179,8.63,14.305,12.851,21.513c0.404,0.69,0.903,1.321,1.24,2.05c0.102,0.216-0.004,0.463,0.104,0.678
	c0.023,0.141,0.046,0.282,0.068,0.422c0.864,1.114,0.718,2.739-0.344,3.82C39.196,34.877,38.313,36.902,36.929,38.605z"/>
<path fill="#1B9C56" d="M22.08,157.235c0.087-0.33,0.175-0.661,0.312-1.176c1.944,2.868,3.546,5.773,5.156,8.673
	c0.007,0.693-0.46,1.181-0.784,1.716c-3.449,5.705-6.755,11.496-10.296,17.145c-0.693,1.105-1.077,2.412-2.132,3.281
	c-2.482,0-4.965,0-7.447,0c-0.956-0.912-0.798-1.881-0.183-2.905c4.712-7.842,9.419-15.686,14.117-23.536
	C21.415,159.441,21.914,158.4,22.08,157.235z"/>
<path fill="#F7C644" d="M14.335,186.874c2.222-4.324,4.949-8.351,7.39-12.546c1.825-3.137,3.714-6.236,5.578-9.35
	c0.058-0.096,0.162-0.165,0.244-0.246c1.652,1.97,2.871,4.21,3.938,6.525c0.406,0.88,0.147,1.886-0.01,2.832
	c0.244,0.478-0.051,0.847-0.27,1.214c-1.736,2.909-3.414,5.853-5.163,8.753c-0.865,1.433-2.03,2.536-3.779,2.818
	C19.62,186.874,16.978,186.874,14.335,186.874z"/>
<path fill="#5FB480" d="M5.927,58.585c0.073-0.01,0.146-0.02,0.219-0.03c0.46,0.549,0.452,1.108,0.035,1.674
	c-0.085,0.012-0.17,0.025-0.254,0.037C5.927,59.706,5.927,59.146,5.927,58.585z"/>
<path fill="#B0B0B0" d="M5.927,121.768c0.063-0.04,0.132-0.058,0.207-0.053c0.015,0.49,0.031,0.979,0.046,1.469
	c-0.084,0.009-0.169,0.017-0.253,0.026C5.927,122.729,5.927,122.249,5.927,121.768z"/>
<path fill="#D44234" d="M41.252,157.324c-0.86,2.764-2.632,5.024-4.109,7.448c-2.9-4.718-5.823-9.422-8.694-14.158
	c-4.526-7.468-9.019-14.956-13.519-22.439c-0.244-0.406-0.419-0.852-0.627-1.28c0.731-0.04,1.462-0.08,2.194-0.121
	c1.521-0.534,3.043-0.534,4.565,0c0.318,0.021,0.637,0.042,0.955,0.063c1.052-0.119,1.857,0.269,2.41,1.174
	c0.068,0.255,0.229,0.416,0.484,0.484c0.525,0.258,0.843,0.709,1.134,1.194c2.856,4.752,5.692,9.515,8.478,14.309
	c0.198,0.34,0.442,0.672,0.413,1.102c1.691,2.824,3.366,5.657,5.079,8.468C40.724,154.731,41.209,155.949,41.252,157.324z"/>
<path fill="#4F4F4F" d="M37.076,101.552c-1.206-1.001-1.706-2.482-2.483-3.76C28.265,87.387,21.992,76.95,15.715,66.514
	c-0.51-0.847-0.919-1.755-1.374-2.635c2.476-0.235,4.954-0.141,7.433-0.052c2.414,0.493,3.512,2.376,4.625,4.293
	c4.288,7.385,8.673,14.712,13.205,21.951c0.375,0.599,0.64,1.267,0.957,1.902c0.585,0.383,0.533,0.913,0.339,1.476
	c0,0.301,0,0.602,0,0.903c0.293,0.709-0.017,1.347-0.313,1.939c-0.819,1.637-1.83,3.165-2.784,4.724
	C37.642,101.28,37.459,101.564,37.076,101.552z"/>
<path fill="#1B9C56" d="M6.181,60.23c-0.012-0.558-0.023-1.116-0.035-1.674c4.886-8.148,9.777-16.293,14.652-24.448
	c0.467-0.78,0.947-1.574,1.042-2.519c0.338-0.507-0.002-1.1,0.279-1.79c1.944,2.89,3.715,5.76,5.195,8.806
	c0.139,0.802-0.437,1.34-0.786,1.925c-3.818,6.401-7.647,12.795-11.496,19.178c-0.224,0.372-0.419,0.781-0.886,0.926
	c-1.846,0.259-3.702,0.015-5.55,0.125C7.724,60.811,6.867,60.956,6.181,60.23z"/>
<path fill="#C8C9CA" d="M14.096,123.665c2.855-4.738,5.71-9.475,8.563-14.215c1.457-2.421,2.931-4.832,4.347-7.277
	c0.358-0.618,0.622-0.542,0.913-0.053c1.12,1.88,2.217,3.774,3.314,5.668c0.276,0.477,0.151,1.014,0.163,1.527
	c0.011,0.436-0.062,0.901,0.449,1.137c0.203,0.361-0.075,0.599-0.232,0.858c-2.039,3.375-4.116,6.727-6.111,10.13
	c-0.919,1.567-2.323,2.463-4.197,2.493c-1.845,0-3.69-0.001-5.535-0.001c-0.53-0.273-1.113-0.024-1.656-0.167
	C14.115,123.765,14.096,123.665,14.096,123.665z"/>
<path fill="#F7C644" d="M14.146,60.634c4.389-7.343,8.778-14.686,13.167-22.029c1.981,2.688,4.313,5.212,4.157,8.899
	c-1.385,3.132-3.368,5.925-5.048,8.89c-0.136,0.241-0.291,0.472-0.415,0.72c-1.31,2.631-3.344,3.931-6.36,3.652
	C17.823,60.597,15.976,60.89,14.146,60.634z"/>
<path fill="#FFFFFF" d="M21.774,63.827c-2.478-0.067-4.956-0.093-7.433,0.052c-0.189-0.074-0.379-0.147-0.568-0.22
	c2.408-0.01,4.817-0.02,7.225-0.029C21.273,63.629,21.556,63.6,21.774,63.827z"/>
<path fill="#FFFFFF" d="M6.399,123.48c0.409,0.127,0.818,0.255,1.227,0.382c-0.058,0.478-0.239,0.903-0.805,0.709
	C6.34,124.406,6.034,124.039,6.399,123.48z"/>
<path fill="#FFFFFF" d="M40.041,25.912c-0.966-0.118-0.66-0.871-0.721-1.441C39.56,24.951,39.8,25.432,40.041,25.912z"/>
<path fill="#FFFFFF" d="M40.463,28.343c0.472-0.319,0.24-0.81,0.299-1.229c0.471,0.588,0.227,1.164-0.028,1.74
	C40.499,28.76,40.508,28.536,40.463,28.343z"/>
<path fill="#FFFFFF" d="M39.08,24.231c-0.799-0.065-0.716-0.659-0.721-1.201C38.599,23.43,38.84,23.83,39.08,24.231z"/>
<path fill="#FFFFFF" d="M14.115,123.765c0.559-0.012,1.14-0.246,1.656,0.167C15.221,123.861,14.64,124.09,14.115,123.765z"/>
<path fill="#FFFFFF" d="M41.242,96.543c-0.197-0.543-0.086-0.963,0.48-1.201C41.619,95.765,41.568,96.209,41.242,96.543z"/>
</svg>
